<?xml version="1.0" encoding="UTF-8"?>
<svg id="Layer_1" data-name="Layer 1" xmlns="http://www.w3.org/2000/svg" viewBox="0 0 1600 1163.79">
  <path d="M1484.6,129l-103.84,101.71-88.67,86.43-24.35,24-129.86,129.78-17.07,18.08c-12.47,13.21-27.44,26.42-46.97,27.19-24.04.94-46.77-.4-71.24-.54l-367.36-2.03-145.07-1.82c-5.36-.07-59.74-6.83-66.71-8.2-41.22-8.06-80.78-20.45-118.79-37.73-13.45-6.11-25.68-12.74-38.75-19.56-71.68-37.39-144.31-107.77-185.86-177.01C51.9,222.36,23.05,155.72,13.42,102.66c-2.22-12.23-4.63-24.48-6.19-36.77L2.29,26.81C1.12,17.58,2.72,4.28,13.26,0l503.4.59c7.68,0,19.84,5.46,19.82,12.51l-.59,182.61-.28,208.58c-.02,16.45,13.5,31.4,25.62,37.47,23.37,11.7,47.93,6.73,64.08-12.41,9.52-11.29,19.2-22.13,28.11-34,21.18-28.23,41.9-54.8,64.67-81.86l75.43-89.67,48.68-56.76,56.69-65.24c17.2-19.79,33.01-39.54,49.19-60.29,17.44-22.36,21.83-39.42,55.99-39.33l424.21,1.14,163.21,1.14c1.9.01,6.55,3.15,7.75,4.52,6,6.79-25.41,32.72-31.57,38.75l-83.08,81.26Z"/>
  <path d="M663.94,783.99c-9.3-11.8-19.16-24.19-26.91-36.73-16.31-26.38-43.79-38.72-74-28.77-17.48,5.75-29.31,18.51-29.53,38.98l-1.33,126.8c-.18,17.34-.08,32.77-.06,50.19l.25,213.45c.02,14.12-35.88,12.25-43.05,12.04l-482.62-3.03c-5.72-9.11-7.61-18.59-6.26-28.28l4.62-33.21c4.93-35.43,11.33-55.12,21.46-89.1,7.59-25.45,17.64-48.31,28.98-72.41,33.07-70.3,78.81-122,139.19-171.09,63.52-51.64,137.03-86.14,217.66-101.97,8.68-1.7,79.61-11.81,83.95-11.8l587.11.35c15.11,0,25.72,16.91,34.48,25.17,15.68,14.78,29.32,28.52,44.16,43.25l24.03,23.84,195.91,195.89c8.81,8.81,15.59,17.17,24.74,25.2,8.22,7.21,14.39,15.09,22.55,23.25l164.88,165.08c1.23,1.24,2.46,5.24,2.21,6.68-1.74,10.17-50.84,4.55-61.22,3.9l-535.32.06c-15.81.95-28.18-4.18-38.17-16.53l-62.75-77.6-56.87-68.95-46.64-58.78-18.85-22.4-32.69-37.59-56.14-65.77-23.75-30.11Z"/>
</svg>