<?xml version="1.0" encoding="UTF-8"?>
<svg id="Layer_2" data-name="Layer 2" xmlns="http://www.w3.org/2000/svg" viewBox="0 0 1600 1600">
  <defs>
    <style>
      .cls-1 {
        fill: #fff;
      }
    </style>
  </defs>
  <rect x="-4.14" y="-4.14" width="1608.29" height="1608.29"/>
  <g>
    <path class="cls-1" d="M1050.46,1139.3c-6.73,8.7-15.32,14.1-26.37,14.77-15.72.95-29.88-7.25-36.17-21.81-5.25-12.15-5.29-25.99-.08-38.12,5.19-12.08,16.33-19.46,27.99-21,13.9-1.84,25.88,3.01,34.76,13.94l.14-40.69,13.27.07v106.27s-13.14.18-13.14.18l-.39-13.61ZM1049.19,1123.74c2.1-7.2,2-14.98-.19-21.61-4.53-13.7-18.1-20.39-31.5-17.31s-20.38,15.29-20.19,29c.19,13.78,8.27,26.21,22.1,28.38,12.74,2,25.74-4.63,29.79-18.47Z"/>
    <path class="cls-1" d="M1141.44,1143.02c10.96.34,19.32-4.67,23.16-14.51l13.72.35c-4.36,16.1-18.46,24.7-34.33,25.29-16.84.63-31.94-8.28-37.75-24.27-3.79-10.43-3.81-21.49-.5-32.02,5.07-16.12,19.56-25.08,36.27-25.15,14.61-.06,28.02,6.56,34.35,20.06,3.68,7.84,4.51,16.41,3.25,25.34l-62.6.06c-.25,13.69,10.22,24.41,24.41,24.86ZM1166.52,1107.61c.54-13.19-8.74-21.89-20.57-23.56-14.86-2.09-28.18,7.47-28.87,23.55h49.44Z"/>
    <polygon class="cls-1" points="476.74 1113.19 513.42 1152.38 496.17 1152.84 465.43 1118.5 465.01 1152.8 452.08 1152.72 452.07 1046.59 465.04 1046.35 465.23 1108.5 495.4 1074.07 513.44 1074.28 476.74 1113.19"/>
    <polygon class="cls-1" points="688.35 1113.22 725.16 1152.53 707.86 1152.92 677.19 1118.63 676.73 1152.81 663.67 1152.73 663.66 1046.69 676.75 1046.44 676.98 1108.46 707.15 1073.99 724.95 1074.29 688.35 1113.22"/>
    <path class="cls-1" d="M950.04,1113.36c0,22.47-18.21,40.68-40.68,40.68s-40.68-18.21-40.68-40.68,18.21-40.68,40.68-40.68,40.68,18.21,40.68,40.68ZM908.68,1142.55c12.34.08,22.72-7.47,25.85-19.27,2.19-8.25,1.9-17.17-1.75-24.88-4.31-9.11-13.01-13.92-22.35-14.25s-18.38,3.42-23.22,11.91c-5.51,9.67-5.65,21.69-1.41,31.85,3.91,9.38,12.63,14.58,22.88,14.64Z"/>
    <path class="cls-1" d="M796.56,1083.88c-13.23-.36-23.07,8.47-23.16,21.46l-.33,47.47-12.95.05-.05-78.77,12.84-.11.58,10.24c7.09-8.73,16.02-11.73,26.54-11.62,17.04.18,30.42,12.67,30.47,30.11l.14,49.97-12.72.08-.37-48.39c-.09-11.88-9.02-20.17-20.99-20.49Z"/>
    <rect class="cls-1" x="548.28" y="1046.34" width="13.13" height="106.54"/>
    <rect class="cls-1" x="606.04" y="1073.98" width="13.07" height="78.9"/>
    <circle class="cls-1" cx="612.73" cy="1052.26" r="8.82"/>
    <g>
      <path class="cls-1" d="M1143.76,512.35l-50.27,49.24-42.92,41.84-11.79,11.62-62.86,62.82-8.26,8.75c-6.03,6.39-13.29,12.79-22.74,13.16-11.64.46-22.64-.2-34.49-.26l-177.84-.98-70.23-.88c-2.6-.03-28.92-3.31-32.29-3.97-19.96-3.9-39.1-9.9-57.51-18.27-6.51-2.96-12.43-6.17-18.76-9.47-34.7-18.1-69.86-52.17-89.97-85.69-13.63-22.72-27.6-54.98-32.26-80.67-1.07-5.92-2.24-11.85-3-17.8l-2.39-18.92c-.57-4.47.21-10.91,5.31-12.98l243.69.29c3.72,0,9.61,2.64,9.6,6.06l-.28,88.4-.14,100.97c-.01,7.96,6.53,15.2,12.4,18.14,11.31,5.66,23.2,3.26,31.02-6.01,4.61-5.46,9.3-10.71,13.61-16.46,10.25-13.67,20.28-26.53,31.3-39.63l36.52-43.41,23.56-27.48,27.45-31.58c8.33-9.58,15.98-19.14,23.81-29.18,8.44-10.82,10.57-19.08,27.1-19.04l205.36.55,79.01.55c.92,0,3.17,1.53,3.75,2.19,2.9,3.29-12.3,15.84-15.28,18.76l-40.22,39.34Z"/>
      <path class="cls-1" d="M746.48,829.42c-4.5-5.71-9.27-11.71-13.03-17.78-7.89-12.77-21.2-18.74-35.82-13.93-8.46,2.79-14.19,8.96-14.29,18.87l-.65,61.38c-.09,8.39-.04,15.87-.03,24.3l.12,103.33c0,6.83-17.37,5.93-20.84,5.83l-233.63-1.47c-2.77-4.41-3.68-9-3.03-13.69l2.23-16.08c2.38-17.15,5.48-26.68,10.39-43.13,3.67-12.32,8.54-23.38,14.03-35.06,16.01-34.03,38.15-59.06,67.38-82.82,30.75-25,66.34-41.7,105.37-49.36,4.2-.82,38.54-5.72,40.64-5.71l284.22.17c7.32,0,12.45,8.19,16.69,12.19,7.59,7.16,14.19,13.81,21.38,20.94l11.63,11.54,94.84,94.83c4.26,4.26,7.55,8.31,11.98,12.2,3.98,3.49,6.97,7.3,10.92,11.26l79.82,79.92c.6.6,1.19,2.53,1.07,3.23-.84,4.92-24.61,2.2-29.64,1.89l-259.14.03c-7.66.46-13.64-2.02-18.48-8l-30.38-37.57-27.53-33.38-22.58-28.45-9.13-10.84-15.82-18.2-27.18-31.84-11.5-14.58Z"/>
    </g>
  </g>
</svg>